<svg width="208" height="22" viewBox="0 0 208 22" fill="none" xmlns="http://www.w3.org/2000/svg">
<rect width="207.996" height="21.3332" rx="4" fill="#6BC7AD" fill-opacity="0.09"/>
<path d="M25.332 0V21.333H4C1.79086 21.333 0 19.5421 0 17.333V4C0.000130019 1.79097 1.79094 0 4 0H25.332Z" fill="#6BC7AD"/>
<path d="M10.8335 9.38875C11.5085 9.38875 12.0557 8.84155 12.0557 8.16654C12.0557 7.49154 11.5085 6.94434 10.8335 6.94434C10.1585 6.94434 9.61133 7.49154 9.61133 8.16654C9.61133 8.84155 10.1585 9.38875 10.8335 9.38875Z" stroke="white" stroke-width="0.5"/>
<path d="M13.2775 11.8335C13.2775 12.5088 13.2775 13.0557 10.8331 13.0557C8.38867 13.0557 8.38867 12.5088 8.38867 11.8335C8.38867 11.1583 9.48255 10.6113 10.8331 10.6113C12.1836 10.6113 13.2775 11.1583 13.2775 11.8335Z" stroke="white" stroke-width="0.5"/>
<path d="M6.55566 10.0002C6.55566 7.69568 6.55566 6.54314 7.27188 5.82754C7.98809 5.11194 9.14002 5.11133 11.4445 5.11133H13.8889C16.1934 5.11133 17.3459 5.11133 18.0615 5.82754C18.7771 6.54375 18.7777 7.69568 18.7777 10.0002C18.7777 12.3046 18.7777 13.4572 18.0615 14.1728C17.3453 14.8884 16.1934 14.889 13.8889 14.889H11.4445C9.14002 14.889 7.98748 14.889 7.27188 14.1728C6.55628 13.4566 6.55566 12.3046 6.55566 10.0002Z" stroke="white" stroke-width="0.5"/>
<path d="M16.9442 10.0003H14.4998M16.9442 8.16699H13.8887M16.9442 11.8336H15.1109" stroke="white" stroke-width="0.5" stroke-linecap="round"/>
</svg>
