<svg width="131" height="180" viewBox="0 0 131 180" fill="none" xmlns="http://www.w3.org/2000/svg">
<path d="M131 57.8738C131 89.8367 63.0285 149.352 27.1986 149.352C-8.63137 149.352 1.24824 89.8367 1.24824 57.8738C1.24824 25.911 30.2942 0 66.1241 0C101.954 0 131 25.911 131 57.8738Z" fill="url(#paint0_linear_871_1989)" fill-opacity="0.2"/>
<path d="M111.929 117.926C111.929 144.905 146.433 180 117.392 180C88.3508 180 21.1025 144.905 21.1025 117.926C21.1025 90.9465 -7.93864 65.9639 21.1025 65.9639C50.1436 65.9639 111.929 90.9465 111.929 117.926Z" fill="url(#paint1_linear_871_1989)" fill-opacity="0.5"/>
<defs>
<linearGradient id="paint0_linear_871_1989" x1="65.5" y1="0" x2="65.5" y2="149.352" gradientUnits="userSpaceOnUse">
<stop stop-color="#00C8B3"/>
<stop offset="1" stop-color="#00C8B3"/>
</linearGradient>
<linearGradient id="paint1_linear_871_1989" x1="374.813" y1="277.701" x2="374.813" y2="386.604" gradientUnits="userSpaceOnUse">
<stop stop-color="#00C8B3"/>
<stop offset="1" stop-color="#6137C4"/>
</linearGradient>
</defs>
</svg>
