<svg width="462" height="456" viewBox="0 0 462 456" fill="none" xmlns="http://www.w3.org/2000/svg">
<path d="M239.702 52.6744C246.057 52.6744 251.471 56.6984 253.537 62.3372L297.385 79.8773C301.452 81.5043 304.118 85.4438 304.118 89.8244V193.992C306.598 196.422 308.137 199.809 308.137 203.555C308.137 249.269 290.736 277.095 266.047 292.643C247.527 304.306 226.209 308.198 208.595 309.329V346.347C208.595 350.43 206.766 354.085 203.885 356.541C197.664 395.741 177.296 423.178 151.298 439.182C122.835 456.702 88.0856 460.227 59.0742 451.185C29.8808 442.087 5.78598 419.911 0.89828 385.966C-3.26389 357.057 6.78832 321.426 36.2821 280.301C37.0562 279.221 38.7021 279.34 39.3178 280.517C41.7332 285.134 44.2733 289.76 46.9471 294.387C47.2924 294.985 47.2596 295.736 46.8713 296.306C22.1918 332.566 15.4545 361.776 18.571 383.422C22.2903 409.251 40.4056 426.665 64.3862 434.139C88.5489 441.669 117.939 438.749 141.938 423.976C162.866 411.094 180.059 388.969 185.879 355.957C183.372 353.524 181.813 350.117 181.813 346.347V308.933C165.376 307.04 144.752 301.543 126.436 289.603C101.905 273.61 82.133 246.347 82.133 203.555C82.1331 199.62 83.8298 196.081 86.5323 193.631V89.868C86.5324 85.4874 89.1992 81.5479 93.2662 79.9209L137.113 62.3808C139.179 56.7419 144.594 52.718 150.949 52.718C159.084 52.718 165.679 59.3133 165.679 67.4489C165.679 75.5846 159.084 82.1799 150.949 82.1799C147.781 82.1799 144.848 81.1799 142.446 79.4789L104.387 94.7033V193.517C107.164 195.971 108.915 199.558 108.915 203.555C108.915 236.58 123.496 255.714 141.061 267.165C159.39 279.114 181.578 282.959 195.204 282.959C213.138 282.959 234.841 280.643 251.775 269.979C267.565 260.035 281.354 241.463 281.354 203.555C281.354 199.378 283.267 195.648 286.264 193.192V94.6597L248.204 79.4353C245.802 81.136 242.869 82.1363 239.702 82.1363C231.567 82.1361 224.972 75.5409 224.972 67.4053C224.972 59.2698 231.567 52.6746 239.702 52.6744Z" fill="#1FAF87"/>
<path d="M379.101 170.447C380.377 170.113 381.578 171.201 381.327 172.495C365.692 253.186 320.137 352.021 199.72 430.63C199.689 430.651 199.657 430.671 199.626 430.691C199.612 430.701 199.598 430.711 199.583 430.72C199.572 430.728 199.56 430.734 199.548 430.741C199.445 430.808 199.34 430.873 199.234 430.936C199.192 430.96 199.149 430.985 199.106 431.009C199.026 431.054 198.946 431.099 198.864 431.141C198.805 431.172 198.746 431.202 198.686 431.232C198.621 431.264 198.556 431.296 198.49 431.327C198.408 431.365 198.326 431.402 198.243 431.438C198.204 431.455 198.164 431.472 198.125 431.488C198.018 431.533 197.911 431.575 197.803 431.615C197.788 431.62 197.772 431.626 197.757 431.631C196.954 431.924 196.126 432.096 195.296 432.15C195.267 432.152 195.238 432.153 195.209 432.154C195.109 432.16 195.009 432.165 194.91 432.167C194.842 432.168 194.774 432.168 194.706 432.168C194.636 432.168 194.567 432.168 194.498 432.167C194.421 432.165 194.343 432.162 194.266 432.158C194.201 432.155 194.136 432.151 194.071 432.147C193.977 432.14 193.884 432.131 193.79 432.121C193.751 432.117 193.712 432.114 193.673 432.109C193.568 432.097 193.462 432.082 193.357 432.066C193.321 432.061 193.284 432.056 193.248 432.05C193.13 432.03 193.013 432.009 192.896 431.984C192.881 431.981 192.866 431.978 192.851 431.975C192.725 431.948 192.598 431.918 192.473 431.886C192.459 431.882 192.445 431.878 192.431 431.875C192.323 431.846 192.216 431.816 192.109 431.783C192.064 431.769 192.018 431.755 191.972 431.74C191.886 431.713 191.8 431.684 191.714 431.653C191.663 431.635 191.612 431.616 191.561 431.596C191.48 431.566 191.398 431.535 191.318 431.501C191.255 431.476 191.193 431.449 191.131 431.422C191.068 431.394 191.005 431.366 190.942 431.337C190.853 431.296 190.766 431.252 190.679 431.209C190.648 431.193 190.617 431.177 190.586 431.161C190.269 430.997 189.961 430.814 189.664 430.611C186.889 428.8 184.154 426.977 181.458 425.144C180.565 424.536 180.417 423.281 181.126 422.466C184.161 418.98 187.024 415.274 189.691 411.348C190.252 410.522 191.377 410.298 192.203 410.858C193.034 411.42 193.868 411.981 194.706 412.541C303.441 339.822 346.717 250.095 362.559 175.32C362.708 174.619 363.259 174.081 363.961 173.939C369.087 172.906 374.145 171.746 379.101 170.447Z" fill="#1FAF87"/>
<path d="M181.562 9.33505C219.298 8.79091 258.272 11.3383 293.325 17.4634C328.15 23.5486 359.817 33.285 382.529 47.5609C382.561 47.5809 382.594 47.6015 382.627 47.622C382.639 47.6297 382.652 47.6377 382.665 47.6455C382.679 47.6545 382.693 47.6643 382.707 47.6734C382.811 47.7394 382.913 47.8072 383.013 47.8774C383.044 47.8987 383.074 47.9212 383.104 47.9428C383.191 48.0055 383.278 48.0697 383.363 48.1355C383.406 48.1688 383.449 48.2026 383.492 48.2366C383.553 48.2861 383.615 48.3364 383.675 48.3874C383.742 48.4443 383.809 48.5024 383.874 48.5609C383.907 48.5906 383.94 48.6206 383.972 48.6508C384.054 48.7265 384.134 48.8043 384.213 48.8827C384.23 48.9002 384.249 48.9174 384.266 48.935C384.35 49.0198 384.431 49.1063 384.511 49.1939C384.53 49.2145 384.548 49.2359 384.567 49.2567C384.636 49.3341 384.704 49.4126 384.77 49.4921C384.805 49.5338 384.839 49.5762 384.873 49.6185C384.928 49.6876 384.983 49.7573 385.036 49.8278C385.068 49.8698 385.099 49.9124 385.13 49.9551C385.185 50.0307 385.239 50.1072 385.291 50.1844C385.325 50.2335 385.357 50.2836 385.39 50.3334C385.43 50.3949 385.469 50.4569 385.508 50.5191C385.551 50.5889 385.592 50.66 385.633 50.731C385.662 50.7808 385.691 50.8307 385.719 50.881C385.767 50.969 385.814 51.0587 385.86 51.1486C385.877 51.1825 385.894 51.2166 385.911 51.2506C385.954 51.3368 385.994 51.4244 386.034 51.5122C386.055 51.5588 386.077 51.6056 386.097 51.6526C386.138 51.7468 386.176 51.8426 386.214 51.9385C386.226 51.9693 386.239 52.0001 386.25 52.031C386.291 52.1387 386.33 52.2481 386.366 52.3579C386.375 52.3842 386.384 52.4109 386.392 52.4372C386.426 52.5401 386.458 52.644 386.487 52.7485C386.5 52.7924 386.511 52.837 386.523 52.881C386.546 52.9679 386.57 53.0554 386.59 53.1434C386.606 53.2082 386.62 53.2736 386.634 53.3387C386.649 53.4098 386.663 53.4815 386.677 53.5532C386.693 53.6397 386.707 53.727 386.72 53.8139C386.728 53.8651 386.738 53.9167 386.745 53.9682C386.759 54.0684 386.77 54.1693 386.78 54.2699C386.784 54.3046 386.789 54.3397 386.793 54.3745C386.794 54.3853 386.794 54.3968 386.795 54.4076C386.798 54.4412 386.801 54.4752 386.804 54.5088C388.581 73.7922 389.847 100.764 386.998 132.346C386.936 133.034 386.481 133.627 385.831 133.86C385.474 133.988 385.115 134.115 384.754 134.241C380.31 135.795 375.676 137.196 370.885 138.456C369.681 138.773 368.543 137.775 368.673 136.537C371.868 106.164 370.999 79.8814 369.403 60.495C349.702 49.1088 322.103 40.6188 290.252 35.0532C256.491 29.1539 218.654 26.6579 181.819 27.189C144.974 27.7203 109.388 31.2764 80.1235 37.3628C52.2871 43.1522 31.5571 50.9626 20.4428 59.6083C20.4294 59.7776 20.4162 59.9482 20.4027 60.1183C20.3349 60.9742 20.1454 61.7915 19.8578 62.5569C14.6176 129.72 18.9398 274.92 162.743 389.245C163.457 389.813 163.652 390.843 163.152 391.606C160.382 395.83 157.339 399.666 154.081 403.132C153.456 403.797 152.408 403.848 151.693 403.28C-3.66829 279.875 -3.54199 121.206 2.61926 54.5716C2.87297 51.832 4.33934 49.4962 6.43872 48.0457L7.0551 47.5043C21.4216 35.0682 46.8458 26.0461 76.488 19.8811C107.087 13.5171 143.835 9.87908 181.562 9.33505Z" fill="#1FAF87"/>
<path d="M196.851 113.83C218.907 113.83 237.741 127.622 245.203 147.052C245.644 148.198 244.764 149.396 243.536 149.374C239.421 149.301 235.443 149.22 231.618 149.141C230.95 149.127 230.349 148.739 230.037 148.148C223.756 136.236 211.253 128.115 196.851 128.115C176.143 128.115 159.356 144.903 159.356 165.612C159.356 186.321 176.143 203.109 196.851 203.109C211.212 203.109 223.684 195.034 229.982 183.178C230.307 182.566 230.942 182.175 231.635 182.189C235.368 182.265 239.292 182.342 243.37 182.41C244.583 182.43 245.424 183.63 244.975 184.758C237.362 203.878 218.685 217.393 196.851 217.393C168.254 217.393 145.072 194.21 145.072 165.612C145.072 137.014 168.254 113.83 196.851 113.83Z" fill="#1FAF87"/>
<path d="M196.032 139.318C207.322 139.318 216.979 146.304 220.919 156.19C236.862 156.513 256.032 156.973 276.751 156.611C277.751 156.593 278.574 157.398 278.574 158.398V172.683C278.574 173.655 277.793 174.449 276.821 174.466C256.484 174.81 237.246 174.387 221.609 174.069C218.217 184.97 208.049 192.885 196.032 192.885C181.241 192.885 169.25 180.894 169.25 166.102C169.25 151.31 181.241 139.318 196.032 139.318Z" fill="#1FAF87"/>
<path d="M333.466 15.5296C365.273 0.383225 395.772 -3.94682 419.542 3.70109C435.632 8.87845 448.379 19.5308 455.565 35.3897C462.652 51.0334 463.963 70.9027 459.11 94.2002C452.112 127.799 425.024 147.116 393.149 158.262C369.066 166.683 340.998 170.877 313.514 172.887C312.482 172.963 311.606 172.144 311.606 171.11V156.782C311.606 155.846 312.329 155.069 313.262 154.999C339.489 153.025 365.44 149.036 387.256 141.407C416.618 131.14 436.503 115.174 441.63 90.5585C445.976 69.6972 444.365 53.9351 439.302 42.7587C434.336 31.7982 425.702 24.4407 414.073 20.6989C399.039 15.8617 378.664 17.0726 355.549 25.556C355.144 25.7045 354.697 25.7044 354.293 25.5534C347.732 23.0987 340.868 20.864 333.768 18.8348C332.193 18.3847 331.987 16.2339 333.466 15.5296Z" fill="#1FAF87"/>
</svg>
