<svg width="18" height="18" viewBox="0 0 18 18" fill="none" xmlns="http://www.w3.org/2000/svg">
<path d="M13.5 10.125H4.5C3.56962 10.125 2.8125 10.8821 2.8125 11.8125V12.375C2.8125 12.5134 2.88225 15.75 9 15.75C15.1178 15.75 15.1875 12.5134 15.1875 12.375V11.8125C15.1875 10.8821 14.4304 10.125 13.5 10.125ZM14.0625 12.3649C14.0591 12.4571 13.9185 14.625 9 14.625C4.0815 14.625 3.94088 12.4571 3.9375 12.375V11.8125C3.9375 11.6633 3.99676 11.5202 4.10225 11.4148C4.20774 11.3093 4.35082 11.25 4.5 11.25H13.5C13.6492 11.25 13.7923 11.3093 13.8977 11.4148C14.0032 11.5202 14.0625 11.6633 14.0625 11.8125V12.3649ZM6.1875 9H11.8125C12.7429 9 13.5 8.24288 13.5 7.3125V3.9375C13.5 3.00713 12.7429 2.25 11.8125 2.25H9.5625V1.6875C9.5625 1.53832 9.50324 1.39524 9.39775 1.28975C9.29226 1.18426 9.14918 1.125 9 1.125C8.85082 1.125 8.70774 1.18426 8.60225 1.28975C8.49676 1.39524 8.4375 1.53832 8.4375 1.6875V2.25H6.1875C5.25712 2.25 4.5 3.00713 4.5 3.9375V7.3125C4.5 8.24288 5.25712 9 6.1875 9ZM5.625 3.9375C5.625 3.78832 5.68426 3.64524 5.78975 3.53975C5.89524 3.43426 6.03832 3.375 6.1875 3.375H11.8125C11.9617 3.375 12.1048 3.43426 12.2102 3.53975C12.3157 3.64524 12.375 3.78832 12.375 3.9375V7.3125C12.375 7.46168 12.3157 7.60476 12.2102 7.71025C12.1048 7.81574 11.9617 7.875 11.8125 7.875H6.1875C6.03832 7.875 5.89524 7.81574 5.78975 7.71025C5.68426 7.60476 5.625 7.46168 5.625 7.3125V3.9375ZM6.46875 5.625C6.46875 5.40122 6.55764 5.18661 6.71588 5.02838C6.87411 4.87014 7.08872 4.78125 7.3125 4.78125C7.53628 4.78125 7.75089 4.87014 7.90912 5.02838C8.06736 5.18661 8.15625 5.40122 8.15625 5.625C8.15625 5.84878 8.06736 6.06339 7.90912 6.22162C7.75089 6.37986 7.53628 6.46875 7.3125 6.46875C7.08872 6.46875 6.87411 6.37986 6.71588 6.22162C6.55764 6.06339 6.46875 5.84878 6.46875 5.625ZM9.84375 5.625C9.84375 5.40122 9.93265 5.18661 10.0909 5.02838C10.2491 4.87014 10.4637 4.78125 10.6875 4.78125C10.9113 4.78125 11.1259 4.87014 11.2841 5.02838C11.4424 5.18661 11.5312 5.40122 11.5312 5.625C11.5312 5.84878 11.4424 6.06339 11.2841 6.22162C11.1259 6.37986 10.9113 6.46875 10.6875 6.46875C10.4637 6.46875 10.2491 6.37986 10.0909 6.22162C9.93265 6.06339 9.84375 5.84878 9.84375 5.625Z" fill="#1FAF87" fill-opacity="0.5"/>
</svg>
