<svg width="26" height="26" viewBox="0 0 26 26" fill="none" xmlns="http://www.w3.org/2000/svg">
<path d="M2.16699 13.0002C2.16699 8.91491 2.16699 6.87175 3.43666 5.60316C4.70633 4.33458 6.74841 4.3335 10.8337 4.3335H15.167C19.2522 4.3335 21.2954 4.3335 22.564 5.60316C23.8326 6.87283 23.8337 8.91491 23.8337 13.0002C23.8337 17.0854 23.8337 19.1286 22.564 20.3972C21.2943 21.6657 19.2522 21.6668 15.167 21.6668H10.8337C6.74841 21.6668 4.70524 21.6668 3.43666 20.3972C2.16808 19.1275 2.16699 17.0854 2.16699 13.0002Z" stroke="#F5F5F5" stroke-width="1.5"/>
<path d="M10.8337 17.3335H6.50033M15.167 17.3335H13.542M2.16699 10.8335H23.8337" stroke="#F5F5F5" stroke-width="1.5" stroke-linecap="round"/>
</svg>
