<svg width="20" height="19" viewBox="0 0 20 19" fill="none" xmlns="http://www.w3.org/2000/svg">
<path d="M2.37832 16.3217L5.17129 15.3893L5.67617 15.6342C6.90954 16.2192 8.26003 16.5153 9.625 16.5C14.4311 16.5 17.875 13.0646 17.875 8.9375C17.875 4.79531 14.4568 1.375 9.625 1.375C4.79316 1.375 1.375 4.79531 1.375 8.9375C1.38259 10.5229 1.90427 12.0631 2.86172 13.3268L3.33008 13.9434L2.37832 16.3217ZM1.40723 18.0941C1.28286 18.1359 1.14915 18.1412 1.02187 18.1094C0.894603 18.0776 0.779085 18.01 0.688959 17.9147C0.598832 17.8194 0.537858 17.7002 0.513236 17.5714C0.488614 17.4425 0.50137 17.3093 0.55 17.1875L1.76387 14.1539C0.626705 12.6519 0.00774178 10.8214 0 8.9375C0 4.38066 3.68672 0 9.625 0C15.5633 0 19.25 4.38066 19.25 8.9375C19.25 13.4943 15.5246 17.875 9.625 17.875C8.05232 17.891 6.49674 17.5479 5.07676 16.8717L1.40723 18.0941Z" fill="#F5F5F5"/>
</svg>
