<svg width="14" height="22" viewBox="0 0 14 22" fill="none" xmlns="http://www.w3.org/2000/svg">
<path d="M4.73044 0.75H2.75C2.21957 0.75 1.71086 1.01623 1.33579 1.49013C0.960714 1.96403 0.75 2.60677 0.75 3.27696V18.4387C0.75 19.1089 0.960714 19.7517 1.33579 20.2256C1.71086 20.6995 2.21957 20.9657 2.75 20.9657H10.75C11.2804 20.9657 11.7891 20.6995 12.1642 20.2256C12.5393 19.7517 12.75 19.1089 12.75 18.4387V10.8578M4.73044 0.75C5.83533 0.75 6.75 1.88096 6.75 3.27696V5.80392C6.75 6.47411 6.96071 7.11686 7.33579 7.59075C7.71086 8.06465 8.21957 8.33088 8.75 8.33088H10.75C11.2804 8.33088 11.7891 8.59712 12.1642 9.07101C12.5393 9.54491 12.75 10.1877 12.75 10.8578M4.73044 0.75C8.01044 0.75 12.75 6.76978 12.75 10.8578" stroke="#1FAF87" stroke-opacity="0.5" stroke-width="1.5" stroke-linecap="round" stroke-linejoin="round"/>
</svg>
