<svg width="24" height="24" viewBox="0 0 24 24" fill="none" xmlns="http://www.w3.org/2000/svg">
<path fill-rule="evenodd" clip-rule="evenodd" d="M10.7593 3.85819C11.424 2.71394 13.0764 2.71394 13.7411 3.85819L15.7746 7.36382C15.9617 7.68681 16.2866 7.9064 16.6559 7.96253L20.0335 8.47262C21.5047 8.69517 22.0207 10.5543 20.8745 11.5036L18.4136 13.542C18.244 13.6826 18.1153 13.8661 18.0408 14.0735C17.9663 14.2808 17.9488 14.5043 17.9902 14.7207L18.6795 18.3406C18.9493 19.7586 17.4604 20.8595 16.1832 20.1879L12.8233 18.4184C12.6466 18.3254 12.4499 18.2768 12.2502 18.2768C12.0505 18.2768 11.8538 18.3254 11.6771 18.4184L8.31722 20.1879C7.04003 20.8605 5.55113 19.7586 5.82094 18.3406L6.51025 14.7207C6.55161 14.5043 6.53414 14.2808 6.45966 14.0735C6.38518 13.8661 6.25642 13.6826 6.08682 13.542L3.625 11.5036C2.47976 10.5543 2.99478 8.69517 4.46793 8.47262L7.84554 7.96253C8.02782 7.93488 8.20157 7.86664 8.35394 7.76284C8.50632 7.65904 8.63343 7.52234 8.72589 7.36283L10.7593 3.85819ZM12.4629 4.59969C12.4413 4.5625 12.4102 4.53164 12.3729 4.51019C12.3356 4.48874 12.2933 4.47746 12.2502 4.47746C12.2072 4.47746 12.1649 4.48874 12.1276 4.51019C12.0902 4.53164 12.0592 4.5625 12.0375 4.59969L10.0031 8.10532C9.79945 8.45593 9.51969 8.75634 9.18444 8.98439C8.8492 9.21243 8.46702 9.36228 8.06612 9.42288L4.68851 9.93297C4.64148 9.94004 4.5975 9.96058 4.5619 9.99211C4.5263 10.0236 4.50059 10.0648 4.48788 10.1106C4.47517 10.1565 4.47601 10.205 4.4903 10.2504C4.50458 10.2957 4.5317 10.336 4.56837 10.3663L7.0292 12.4046C7.40227 12.7137 7.68559 13.1172 7.84961 13.5731C8.01364 14.029 8.05236 14.5205 7.96174 14.9964L7.27243 18.6163C7.26377 18.6618 7.26812 18.7088 7.28499 18.752C7.30185 18.7951 7.33055 18.8326 7.36779 18.8602C7.40502 18.8878 7.44927 18.9043 7.49546 18.9078C7.54165 18.9113 7.5879 18.9018 7.6289 18.8802L10.9888 17.1116C11.3777 16.9069 11.8107 16.7999 12.2502 16.7999C12.6898 16.7999 13.1227 16.9069 13.5117 17.1116L16.8715 18.8802C16.9125 18.9018 16.9588 18.9113 17.005 18.9078C17.0512 18.9043 17.0954 18.8878 17.1327 18.8602C17.1699 18.8326 17.1986 18.7951 17.2155 18.752C17.2323 18.7088 17.2367 18.6618 17.228 18.6163L16.5387 14.9964C16.4481 14.5205 16.4868 14.029 16.6508 13.5731C16.8149 13.1172 17.0982 12.7137 17.4712 12.4046L19.9331 10.3663C19.9698 10.3359 19.9969 10.2956 20.0111 10.2501C20.0253 10.2047 20.0261 10.1561 20.0133 10.1103C20.0004 10.0644 19.9746 10.0233 19.9389 9.99179C19.9031 9.96032 19.8591 9.93989 19.8119 9.93297L16.4343 9.42288C16.0333 9.36217 15.6511 9.21217 15.3159 8.98395C14.9806 8.75573 14.7009 8.45513 14.4974 8.10433L12.4629 4.59969Z" fill="#1FAF87" fill-opacity="0.5"/>
</svg>
